{
    "asset" : {
        "generator" : "Khronos glTF Blender I/O v1.3.48",
        "version" : "2.0"
    },
    "scene" : 0,
    "scenes" : [
        {
            "name" : "Scene",
            "nodes" : [
                0,
                1,
                3,
                4,
                5
            ]
        }
    ],
    "nodes" : [
        {
            "name" : "Node_1",
            "rotation" : [
                -0.7071068286895752,
                0,
                0,
                0.7071068286895752
            ],
            "scale" : [
                0.5082985162734985,
                0.5082985162734985,
                0.5082985162734985
            ],
            "translation" : [
                0.937112033367157,
                -0.3344758450984955,
                0.48517292737960815
            ]
        },
        {
            "name" : "Node_1.001",
            "rotation" : [
                -0.7071068286895752,
                0,
                0,
                0.7071068286895752
            ],
            "scale" : [
                0.5082985162734985,
                0.5082985162734985,
                0.5082985162734985
            ],
            "translation" : [
                0.937112033367157,
                -0.3344758450984955,
                0.48517292737960815
            ]
        },
        {
            "mesh" : 0,
            "name" : "Mesh_Mesh_head_geo.001_lambert2SG.003",
            "rotation" : [
                0,
                0,
                -0.3806493878364563,
                0.9247194528579712
            ],
            "scale" : [
                0.13196800649166107,
                0.13196802139282227,
                0.13196802139282227
            ],
            "translation" : [
                -6.48077392578125,
                -22.347457885742188,
                -8.691311836242676
            ]
        },
        {
            "children" : [
                2
            ],
            "name" : "Node_1.002",
            "rotation" : [
                -0.7071068286895752,
                0,
                0,
                0.7071068286895752
            ],
            "scale" : [
                0.5082985162734985,
                0.5082985162734985,
                0.5082985162734985
            ],
            "translation" : [
                0.937112033367157,
                -0.3344758450984955,
                0.48517292737960815
            ]
        },
        {
            "name" : "Light",
            "rotation" : [
                0.16907575726509094,
                0.7558803558349609,
                -0.27217137813568115,
                0.570947527885437
            ],
            "scale" : [
                0.5082985758781433,
                0.5082985162734985,
                0.5082986354827881
            ],
            "translation" : [
                3.009061813354492,
                -0.5603173971176147,
                -0.0258978009223938
            ]
        },
        {
            "name" : "Camera",
            "rotation" : [
                0.483536034822464,
                0.33687159419059753,
                -0.20870360732078552,
                0.7804827094078064
            ],
            "scale" : [
                0.5082985162734985,
                0.5082985162734985,
                0.5082985162734985
            ],
            "translation" : [
                4.677626132965088,
                2.185825824737549,
                4.005542278289795
            ]
        }
    ],
    "materials" : [
        {
            "emissiveFactor" : [
                0,
                0,
                0
            ],
            "name" : "lambert2SG.003",
            "pbrMetallicRoughness" : {
                "metallicFactor" : 0.5,
                "roughnessFactor" : 0.5
            }
        }
    ],
    "meshes" : [
        {
            "name" : "Mesh_0.002",
            "primitives" : [
                {
                    "attributes" : {
                        "POSITION" : 0,
                        "NORMAL" : 1,
                        "COLOR_0" : 2
                    },
                    "indices" : 3,
                    "material" : 0
                }
            ]
        }
    ],
    "accessors" : [
        {
            "bufferView" : 0,
            "componentType" : 5126,
            "count" : 2724,
            "max" : [
                26.752954483032227,
                21.237009048461914,
                9.99998950958252
            ],
            "min" : [
                -27.247045516967773,
                -22.262990951538086,
                -1.0246607416775078e-05
            ],
            "type" : "VEC3"
        },
        {
            "bufferView" : 1,
            "componentType" : 5126,
            "count" : 2724,
            "type" : "VEC3"
        },
        {
            "bufferView" : 2,
            "componentType" : 5126,
            "count" : 2724,
            "type" : "VEC4"
        },
        {
            "bufferView" : 3,
            "componentType" : 5123,
            "count" : 2724,
            "type" : "SCALAR"
        }
    ],
    "bufferViews" : [
        {
            "buffer" : 0,
            "byteLength" : 32688,
            "byteOffset" : 0
        },
        {
            "buffer" : 0,
            "byteLength" : 32688,
            "byteOffset" : 32688
        },
        {
            "buffer" : 0,
            "byteLength" : 43584,
            "byteOffset" : 65376
        },
        {
            "buffer" : 0,
            "byteLength" : 5448,
            "byteOffset" : 108960
        }
    ],
    "buffers" : [
        {
            "byteLength" : 114408,
            "uri" : "data:application/octet-stream;base64,"
        }
    ]
}
