{
    "asset" : {
        "generator" : "Khronos glTF Blender I/O v1.3.48",
        "version" : "2.0"
    },
    "scene" : 0,
    "scenes" : [
        {
            "name" : "Scene",
            "nodes" : [
                0,
                1,
                2,
                3,
                4,
                5,
                6,
                7,
                8,
                9,
                10
            ]
        }
    ],
    "nodes" : [
        {
            "name" : "Node_1",
            "rotation" : [
                -0.7071068286895752,
                0,
                0,
                0.7071068286895752
            ],
            "scale" : [
                0.5082985162734985,
                0.5082985162734985,
                0.5082985162734985
            ],
            "translation" : [
                0.937112033367157,
                -0.3344758450984955,
                0.48517292737960815
            ]
        },
        {
            "name" : "Node_1.001",
            "rotation" : [
                -0.7071068286895752,
                0,
                0,
                0.7071068286895752
            ],
            "scale" : [
                0.5082985162734985,
                0.5082985162734985,
                0.5082985162734985
            ],
            "translation" : [
                0.937112033367157,
                -0.3344758450984955,
                0.48517292737960815
            ]
        },
        {
            "name" : "Node_1.002",
            "rotation" : [
                -0.7071068286895752,
                0,
                0,
                0.7071068286895752
            ],
            "scale" : [
                0.5082985162734985,
                0.5082985162734985,
                0.5082985162734985
            ],
            "translation" : [
                0.937112033367157,
                -0.3344758450984955,
                0.48517292737960815
            ]
        },
        {
            "name" : "Light",
            "rotation" : [
                0.16907575726509094,
                0.7558803558349609,
                -0.27217137813568115,
                0.570947527885437
            ],
            "scale" : [
                0.5082985758781433,
                0.5082985162734985,
                0.5082986354827881
            ],
            "translation" : [
                3.009061813354492,
                -0.5603173971176147,
                -0.0258978009223938
            ]
        },
        {
            "name" : "Camera",
            "rotation" : [
                0.483536034822464,
                0.33687159419059753,
                -0.20870360732078552,
                0.7804827094078064
            ],
            "scale" : [
                0.5082985162734985,
                0.5082985162734985,
                0.5082985162734985
            ],
            "translation" : [
                4.677626132965088,
                2.185825824737549,
                4.005542278289795
            ]
        },
        {
            "mesh" : 0,
            "name" : "tabliczka_wzor1",
            "rotation" : [
                -0.648230254650116,
                0.2824844717979431,
                -0.2824845016002655,
                -0.6482303142547607
            ],
            "scale" : [
                0.5903003811836243,
                0.5903003811836243,
                0.5903003811836243
            ],
            "translation" : [
                -10.02001953125,
                -1.7592560052871704,
                1.300368070602417
            ]
        },
        {
            "mesh" : 1,
            "name" : "tabliczka_wzor1.001",
            "rotation" : [
                -0.648230254650116,
                0.2824844717979431,
                -0.2824845016002655,
                -0.6482303142547607
            ],
            "scale" : [
                0.5903003811836243,
                0.5903003811836243,
                0.5903003811836243
            ],
            "translation" : [
                -4.997347354888916,
                -1.7592560052871704,
                8.468647956848145
            ]
        },
        {
            "mesh" : 2,
            "name" : "tabliczka_wzor1.002",
            "rotation" : [
                -0.648230254650116,
                0.2824844717979431,
                -0.2824845016002655,
                -0.6482303142547607
            ],
            "scale" : [
                0.5903003811836243,
                0.5903003811836243,
                0.5903003811836243
            ],
            "translation" : [
                3.2496728897094727,
                -1.7592560052871704,
                14.417832374572754
            ]
        },
        {
            "mesh" : 3,
            "name" : "tabliczka_wzor1.003",
            "rotation" : [
                -0.648230254650116,
                0.2824844717979431,
                -0.2824845016002655,
                -0.6482303142547607
            ],
            "scale" : [
                0.5903003811836243,
                0.5903003811836243,
                0.5903003811836243
            ],
            "translation" : [
                13.977710723876953,
                -1.7592560052871704,
                3.641031265258789
            ]
        },
        {
            "mesh" : 4,
            "name" : "tabliczka_wzor1.004",
            "rotation" : [
                -0.648230254650116,
                0.2824844717979431,
                -0.2824845016002655,
                -0.6482303142547607
            ],
            "scale" : [
                0.5903003811836243,
                0.5903003811836243,
                0.5903003811836243
            ],
            "translation" : [
                6.565611839294434,
                -1.7592560052871704,
                -11.963386535644531
            ]
        },
        {
            "mesh" : 5,
            "name" : "tabliczka_wzor1.005",
            "rotation" : [
                -0.648230254650116,
                0.2824844717979431,
                -0.2824845016002655,
                -0.6482303142547607
            ],
            "scale" : [
                0.5903003811836243,
                0.5903003811836243,
                0.5903003811836243
            ],
            "translation" : [
                -4.211190223693848,
                -1.7592560052871704,
                -12.841135025024414
            ]
        }
    ],
    "materials" : [
        {
            "doubleSided" : true,
            "emissiveFactor" : [
                0,
                0,
                0
            ],
            "name" : "Material.004",
            "pbrMetallicRoughness" : {
                "baseColorTexture" : {
                    "index" : 0,
                    "texCoord" : 0
                },
                "metallicFactor" : 0,
                "roughnessFactor" : 0.5
            }
        },
        {
            "doubleSided" : true,
            "emissiveFactor" : [
                0,
                0,
                0
            ],
            "name" : "Material.005",
            "pbrMetallicRoughness" : {
                "baseColorTexture" : {
                    "index" : 1,
                    "texCoord" : 0
                },
                "metallicFactor" : 0,
                "roughnessFactor" : 0.5
            }
        },
        {
            "doubleSided" : true,
            "emissiveFactor" : [
                0,
                0,
                0
            ],
            "name" : "Material.006",
            "pbrMetallicRoughness" : {
                "baseColorTexture" : {
                    "index" : 2,
                    "texCoord" : 0
                },
                "metallicFactor" : 0,
                "roughnessFactor" : 0.5
            }
        },
        {
            "doubleSided" : true,
            "emissiveFactor" : [
                0,
                0,
                0
            ],
            "name" : "Material.007",
            "pbrMetallicRoughness" : {
                "baseColorTexture" : {
                    "index" : 3,
                    "texCoord" : 0
                },
                "metallicFactor" : 0,
                "roughnessFactor" : 0.5
            }
        },
        {
            "doubleSided" : true,
            "emissiveFactor" : [
                0,
                0,
                0
            ],
            "name" : "Material.008",
            "pbrMetallicRoughness" : {
                "baseColorTexture" : {
                    "index" : 4,
                    "texCoord" : 0
                },
                "metallicFactor" : 0,
                "roughnessFactor" : 0.5
            }
        }
    ],
    "meshes" : [
        {
            "name" : "NurbsCircle.001",
            "primitives" : [
                {
                    "attributes" : {
                        "POSITION" : 0,
                        "NORMAL" : 1,
                        "TEXCOORD_0" : 2
                    },
                    "indices" : 3,
                    "material" : 0
                }
            ]
        },
        {
            "name" : "NurbsCircle.002",
            "primitives" : [
                {
                    "attributes" : {
                        "POSITION" : 4,
                        "NORMAL" : 5,
                        "TEXCOORD_0" : 6
                    },
                    "indices" : 3,
                    "material" : 0
                }
            ]
        },
        {
            "name" : "NurbsCircle.003",
            "primitives" : [
                {
                    "attributes" : {
                        "POSITION" : 7,
                        "NORMAL" : 8,
                        "TEXCOORD_0" : 9
                    },
                    "indices" : 3,
                    "material" : 1
                }
            ]
        },
        {
            "name" : "NurbsCircle.004",
            "primitives" : [
                {
                    "attributes" : {
                        "POSITION" : 10,
                        "NORMAL" : 11,
                        "TEXCOORD_0" : 12
                    },
                    "indices" : 3,
                    "material" : 2
                }
            ]
        },
        {
            "name" : "NurbsCircle.005",
            "primitives" : [
                {
                    "attributes" : {
                        "POSITION" : 13,
                        "NORMAL" : 14,
                        "TEXCOORD_0" : 15
                    },
                    "indices" : 3,
                    "material" : 3
                }
            ]
        },
        {
            "name" : "NurbsCircle.006",
            "primitives" : [
                {
                    "attributes" : {
                        "POSITION" : 16,
                        "NORMAL" : 17,
                        "TEXCOORD_0" : 18
                    },
                    "indices" : 3,
                    "material" : 4
                }
            ]
        }
    ],
    "textures" : [
        {
            "source" : 0
        },
        {
            "source" : 1
        },
        {
            "source" : 2
        },
        {
            "source" : 3
        },
        {
            "source" : 4
        }
    ],
    "images" : [
        {
            "bufferView" : 4,
            "mimeType" : "image/png",
            "name" : "1"
        },
        {
            "bufferView" : 11,
            "mimeType" : "image/png",
            "name" : "8"
        },
        {
            "bufferView" : 15,
            "mimeType" : "image/png",
            "name" : "4"
        },
        {
            "bufferView" : 19,
            "mimeType" : "image/png",
            "name" : "5"
        },
        {
            "bufferView" : 23,
            "mimeType" : "image/png",
            "name" : "2"
        }
    ],
    "accessors" : [
        {
            "bufferView" : 0,
            "componentType" : 5126,
            "count" : 144,
            "max" : [
                1.0042904615402222,
                0,
                1.0000001192092896
            ],
            "min" : [
                -1,
                0,
                -1
            ],
            "type" : "VEC3"
        },
        {
            "bufferView" : 1,
            "componentType" : 5126,
            "count" : 144,
            "type" : "VEC3"
        },
        {
            "bufferView" : 2,
            "componentType" : 5126,
            "count" : 144,
            "type" : "VEC2"
        },
        {
            "bufferView" : 3,
            "componentType" : 5123,
            "count" : 426,
            "type" : "SCALAR"
        },
        {
            "bufferView" : 5,
            "componentType" : 5126,
            "count" : 144,
            "max" : [
                1.0042904615402222,
                0,
                1.0000001192092896
            ],
            "min" : [
                -1,
                0,
                -1
            ],
            "type" : "VEC3"
        },
        {
            "bufferView" : 6,
            "componentType" : 5126,
            "count" : 144,
            "type" : "VEC3"
        },
        {
            "bufferView" : 7,
            "componentType" : 5126,
            "count" : 144,
            "type" : "VEC2"
        },
        {
            "bufferView" : 8,
            "componentType" : 5126,
            "count" : 144,
            "max" : [
                1.0042904615402222,
                0,
                1.0000001192092896
            ],
            "min" : [
                -1,
                0,
                -1
            ],
            "type" : "VEC3"
        },
        {
            "bufferView" : 9,
            "componentType" : 5126,
            "count" : 144,
            "type" : "VEC3"
        },
        {
            "bufferView" : 10,
            "componentType" : 5126,
            "count" : 144,
            "type" : "VEC2"
        },
        {
            "bufferView" : 12,
            "componentType" : 5126,
            "count" : 144,
            "max" : [
                1.0042904615402222,
                0,
                1.0000001192092896
            ],
            "min" : [
                -1,
                0,
                -1
            ],
            "type" : "VEC3"
        },
        {
            "bufferView" : 13,
            "componentType" : 5126,
            "count" : 144,
            "type" : "VEC3"
        },
        {
            "bufferView" : 14,
            "componentType" : 5126,
            "count" : 144,
            "type" : "VEC2"
        },
        {
            "bufferView" : 16,
            "componentType" : 5126,
            "count" : 144,
            "max" : [
                1.0042904615402222,
                0,
                1.0000001192092896
            ],
            "min" : [
                -1,
                0,
                -1
            ],
            "type" : "VEC3"
        },
        {
            "bufferView" : 17,
            "componentType" : 5126,
            "count" : 144,
            "type" : "VEC3"
        },
        {
            "bufferView" : 18,
            "componentType" : 5126,
            "count" : 144,
            "type" : "VEC2"
        },
        {
            "bufferView" : 20,
            "componentType" : 5126,
            "count" : 144,
            "max" : [
                1.0042904615402222,
                0,
                1.0000001192092896
            ],
            "min" : [
                -1,
                0,
                -1
            ],
            "type" : "VEC3"
        },
        {
            "bufferView" : 21,
            "componentType" : 5126,
            "count" : 144,
            "type" : "VEC3"
        },
        {
            "bufferView" : 22,
            "componentType" : 5126,
            "count" : 144,
            "type" : "VEC2"
        }
    ],
    "bufferViews" : [
        {
            "buffer" : 0,
            "byteLength" : 1728,
            "byteOffset" : 0
        },
        {
            "buffer" : 0,
            "byteLength" : 1728,
            "byteOffset" : 1728
        },
        {
            "buffer" : 0,
            "byteLength" : 1152,
            "byteOffset" : 3456
        },
        {
            "buffer" : 0,
            "byteLength" : 852,
            "byteOffset" : 4608
        },
        {
            "buffer" : 0,
            "byteLength" : 1693,
            "byteOffset" : 5460
        },
        {
            "buffer" : 0,
            "byteLength" : 1728,
            "byteOffset" : 7156
        },
        {
            "buffer" : 0,
            "byteLength" : 1728,
            "byteOffset" : 8884
        },
        {
            "buffer" : 0,
            "byteLength" : 1152,
            "byteOffset" : 10612
        },
        {
            "buffer" : 0,
            "byteLength" : 1728,
            "byteOffset" : 11764
        },
        {
            "buffer" : 0,
            "byteLength" : 1728,
            "byteOffset" : 13492
        },
        {
            "buffer" : 0,
            "byteLength" : 1152,
            "byteOffset" : 15220
        },
        {
            "buffer" : 0,
            "byteLength" : 2266,
            "byteOffset" : 16372
        },
        {
            "buffer" : 0,
            "byteLength" : 1728,
            "byteOffset" : 18640
        },
        {
            "buffer" : 0,
            "byteLength" : 1728,
            "byteOffset" : 20368
        },
        {
            "buffer" : 0,
            "byteLength" : 1152,
            "byteOffset" : 22096
        },
        {
            "buffer" : 0,
            "byteLength" : 1897,
            "byteOffset" : 23248
        },
        {
            "buffer" : 0,
            "byteLength" : 1728,
            "byteOffset" : 25148
        },
        {
            "buffer" : 0,
            "byteLength" : 1728,
            "byteOffset" : 26876
        },
        {
            "buffer" : 0,
            "byteLength" : 1152,
            "byteOffset" : 28604
        },
        {
            "buffer" : 0,
            "byteLength" : 2054,
            "byteOffset" : 29756
        },
        {
            "buffer" : 0,
            "byteLength" : 1728,
            "byteOffset" : 31812
        },
        {
            "buffer" : 0,
            "byteLength" : 1728,
            "byteOffset" : 33540
        },
        {
            "buffer" : 0,
            "byteLength" : 1152,
            "byteOffset" : 35268
        },
        {
            "buffer" : 0,
            "byteLength" : 2037,
            "byteOffset" : 36420
        }
    ],
    "buffers" : [
        {
            "byteLength" : 38460,
            "uri" : "data:application/octet-stream;base64,"
        }
    ]
}
