{
    "asset" : {
        "generator" : "Khronos glTF Blender I/O v1.3.48",
        "version" : "2.0"
    },
    "scene" : 0,
    "scenes" : [
        {
            "name" : "Scene",
            "nodes" : [
                0,
                1,
                2,
                3,
                4,
                5,
                6,
                7,
                8,
                9,
                10
            ]
        }
    ],
    "nodes" : [
        {
            "name" : "Node_1",
            "rotation" : [
                -0.7071068286895752,
                0,
                0,
                0.7071068286895752
            ],
            "scale" : [
                0.5082985162734985,
                0.5082985162734985,
                0.5082985162734985
            ],
            "translation" : [
                0.937112033367157,
                -0.3344758450984955,
                0.48517292737960815
            ]
        },
        {
            "name" : "Node_1.001",
            "rotation" : [
                -0.7071068286895752,
                0,
                0,
                0.7071068286895752
            ],
            "scale" : [
                0.5082985162734985,
                0.5082985162734985,
                0.5082985162734985
            ],
            "translation" : [
                0.937112033367157,
                -0.3344758450984955,
                0.48517292737960815
            ]
        },
        {
            "name" : "Node_1.002",
            "rotation" : [
                -0.7071068286895752,
                0,
                0,
                0.7071068286895752
            ],
            "scale" : [
                0.5082985162734985,
                0.5082985162734985,
                0.5082985162734985
            ],
            "translation" : [
                0.937112033367157,
                -0.3344758450984955,
                0.48517292737960815
            ]
        },
        {
            "name" : "Light",
            "rotation" : [
                0.16907575726509094,
                0.7558803558349609,
                -0.27217137813568115,
                0.570947527885437
            ],
            "scale" : [
                0.5082985758781433,
                0.5082985162734985,
                0.5082986354827881
            ],
            "translation" : [
                3.009061813354492,
                -0.5603173971176147,
                -0.0258978009223938
            ]
        },
        {
            "name" : "Camera",
            "rotation" : [
                0.483536034822464,
                0.33687159419059753,
                -0.20870360732078552,
                0.7804827094078064
            ],
            "scale" : [
                0.5082985162734985,
                0.5082985162734985,
                0.5082985162734985
            ],
            "translation" : [
                4.677626132965088,
                2.185825824737549,
                4.005542278289795
            ]
        },
        {
            "mesh" : 0,
            "name" : "Plane.003",
            "rotation" : [
                0,
                -0.38081008195877075,
                0,
                0.9246534109115601
            ],
            "scale" : [
                1.6901875734329224,
                1.6901874542236328,
                1.6901875734329224
            ],
            "translation" : [
                -8.158468246459961,
                -4.746562480926514,
                4.566525459289551
            ]
        },
        {
            "mesh" : 1,
            "name" : "Plane.004",
            "rotation" : [
                0,
                -0.38081008195877075,
                0,
                0.9246534109115601
            ],
            "scale" : [
                1.6901875734329224,
                1.6901874542236328,
                1.6901875734329224
            ],
            "translation" : [
                8.918702125549316,
                -4.746562480926514,
                -9.794528007507324
            ]
        },
        {
            "mesh" : 2,
            "name" : "Plane.005",
            "rotation" : [
                0,
                -0.38081008195877075,
                0,
                0.9246534109115601
            ],
            "scale" : [
                2.4883594512939453,
                2.488359212875366,
                2.4883594512939453
            ],
            "translation" : [
                -2.2692620754241943,
                -4.746562480926514,
                11.717235565185547
            ]
        },
        {
            "mesh" : 3,
            "name" : "Plane.006",
            "rotation" : [
                0,
                -0.38081008195877075,
                0,
                0.9246534109115601
            ],
            "scale" : [
                2.4883594512939453,
                2.488359212875366,
                0.8430780172348022
            ],
            "translation" : [
                5.606634616851807,
                -4.746562480926514,
                17.135717391967773
            ]
        },
        {
            "mesh" : 4,
            "name" : "Plane.007",
            "rotation" : [
                0,
                -0.38081008195877075,
                0,
                0.9246534109115601
            ],
            "scale" : [
                2.4883594512939453,
                2.488359212875366,
                0.8430780172348022
            ],
            "translation" : [
                16.7308406829834,
                -4.746562480926514,
                6.364764213562012
            ]
        },
        {
            "mesh" : 5,
            "name" : "Plane.008",
            "rotation" : [
                0,
                -0.38081008195877075,
                0,
                0.9246534109115601
            ],
            "scale" : [
                2.4883594512939453,
                2.488359212875366,
                0.8430780172348022
            ],
            "translation" : [
                -1.2414828538894653,
                -4.746562480926514,
                -10.102956771850586
            ]
        }
    ],
    "materials" : [
        {
            "doubleSided" : true,
            "emissiveFactor" : [
                0,
                0,
                0
            ],
            "name" : "Material.002",
            "pbrMetallicRoughness" : {
                "baseColorFactor" : [
                    0.800000011920929,
                    0.800000011920929,
                    0.800000011920929,
                    1
                ],
                "metallicFactor" : 0,
                "roughnessFactor" : 0.5
            }
        }
    ],
    "meshes" : [
        {
            "name" : "Plane.003",
            "primitives" : [
                {
                    "attributes" : {
                        "POSITION" : 0,
                        "NORMAL" : 1,
                        "TEXCOORD_0" : 2
                    },
                    "indices" : 3,
                    "material" : 0
                }
            ]
        },
        {
            "name" : "Plane.004",
            "primitives" : [
                {
                    "attributes" : {
                        "POSITION" : 4,
                        "NORMAL" : 5,
                        "TEXCOORD_0" : 6
                    },
                    "indices" : 3,
                    "material" : 0
                }
            ]
        },
        {
            "name" : "Plane.005",
            "primitives" : [
                {
                    "attributes" : {
                        "POSITION" : 7,
                        "NORMAL" : 8,
                        "TEXCOORD_0" : 9
                    },
                    "indices" : 3,
                    "material" : 0
                }
            ]
        },
        {
            "name" : "Plane.006",
            "primitives" : [
                {
                    "attributes" : {
                        "POSITION" : 10,
                        "NORMAL" : 11,
                        "TEXCOORD_0" : 12
                    },
                    "indices" : 3,
                    "material" : 0
                }
            ]
        },
        {
            "name" : "Plane.007",
            "primitives" : [
                {
                    "attributes" : {
                        "POSITION" : 13,
                        "NORMAL" : 14,
                        "TEXCOORD_0" : 15
                    },
                    "indices" : 3,
                    "material" : 0
                }
            ]
        },
        {
            "name" : "Plane.008",
            "primitives" : [
                {
                    "attributes" : {
                        "POSITION" : 16,
                        "NORMAL" : 17,
                        "TEXCOORD_0" : 18
                    },
                    "indices" : 3,
                    "material" : 0
                }
            ]
        }
    ],
    "accessors" : [
        {
            "bufferView" : 0,
            "componentType" : 5126,
            "count" : 8,
            "max" : [
                1,
                0,
                1
            ],
            "min" : [
                -1,
                0,
                -1
            ],
            "type" : "VEC3"
        },
        {
            "bufferView" : 1,
            "componentType" : 5126,
            "count" : 8,
            "type" : "VEC3"
        },
        {
            "bufferView" : 2,
            "componentType" : 5126,
            "count" : 8,
            "type" : "VEC2"
        },
        {
            "bufferView" : 3,
            "componentType" : 5123,
            "count" : 24,
            "type" : "SCALAR"
        },
        {
            "bufferView" : 4,
            "componentType" : 5126,
            "count" : 8,
            "max" : [
                1,
                0,
                1
            ],
            "min" : [
                -1,
                0,
                -1
            ],
            "type" : "VEC3"
        },
        {
            "bufferView" : 5,
            "componentType" : 5126,
            "count" : 8,
            "type" : "VEC3"
        },
        {
            "bufferView" : 6,
            "componentType" : 5126,
            "count" : 8,
            "type" : "VEC2"
        },
        {
            "bufferView" : 7,
            "componentType" : 5126,
            "count" : 8,
            "max" : [
                1,
                0,
                1
            ],
            "min" : [
                -1,
                0,
                -1
            ],
            "type" : "VEC3"
        },
        {
            "bufferView" : 8,
            "componentType" : 5126,
            "count" : 8,
            "type" : "VEC3"
        },
        {
            "bufferView" : 9,
            "componentType" : 5126,
            "count" : 8,
            "type" : "VEC2"
        },
        {
            "bufferView" : 10,
            "componentType" : 5126,
            "count" : 8,
            "max" : [
                1,
                0,
                1
            ],
            "min" : [
                -1,
                0,
                -1
            ],
            "type" : "VEC3"
        },
        {
            "bufferView" : 11,
            "componentType" : 5126,
            "count" : 8,
            "type" : "VEC3"
        },
        {
            "bufferView" : 12,
            "componentType" : 5126,
            "count" : 8,
            "type" : "VEC2"
        },
        {
            "bufferView" : 13,
            "componentType" : 5126,
            "count" : 8,
            "max" : [
                1,
                0,
                1
            ],
            "min" : [
                -1,
                0,
                -1
            ],
            "type" : "VEC3"
        },
        {
            "bufferView" : 14,
            "componentType" : 5126,
            "count" : 8,
            "type" : "VEC3"
        },
        {
            "bufferView" : 15,
            "componentType" : 5126,
            "count" : 8,
            "type" : "VEC2"
        },
        {
            "bufferView" : 16,
            "componentType" : 5126,
            "count" : 8,
            "max" : [
                1,
                0,
                1
            ],
            "min" : [
                -1,
                0,
                -1
            ],
            "type" : "VEC3"
        },
        {
            "bufferView" : 17,
            "componentType" : 5126,
            "count" : 8,
            "type" : "VEC3"
        },
        {
            "bufferView" : 18,
            "componentType" : 5126,
            "count" : 8,
            "type" : "VEC2"
        }
    ],
    "bufferViews" : [
        {
            "buffer" : 0,
            "byteLength" : 96,
            "byteOffset" : 0
        },
        {
            "buffer" : 0,
            "byteLength" : 96,
            "byteOffset" : 96
        },
        {
            "buffer" : 0,
            "byteLength" : 64,
            "byteOffset" : 192
        },
        {
            "buffer" : 0,
            "byteLength" : 48,
            "byteOffset" : 256
        },
        {
            "buffer" : 0,
            "byteLength" : 96,
            "byteOffset" : 304
        },
        {
            "buffer" : 0,
            "byteLength" : 96,
            "byteOffset" : 400
        },
        {
            "buffer" : 0,
            "byteLength" : 64,
            "byteOffset" : 496
        },
        {
            "buffer" : 0,
            "byteLength" : 96,
            "byteOffset" : 560
        },
        {
            "buffer" : 0,
            "byteLength" : 96,
            "byteOffset" : 656
        },
        {
            "buffer" : 0,
            "byteLength" : 64,
            "byteOffset" : 752
        },
        {
            "buffer" : 0,
            "byteLength" : 96,
            "byteOffset" : 816
        },
        {
            "buffer" : 0,
            "byteLength" : 96,
            "byteOffset" : 912
        },
        {
            "buffer" : 0,
            "byteLength" : 64,
            "byteOffset" : 1008
        },
        {
            "buffer" : 0,
            "byteLength" : 96,
            "byteOffset" : 1072
        },
        {
            "buffer" : 0,
            "byteLength" : 96,
            "byteOffset" : 1168
        },
        {
            "buffer" : 0,
            "byteLength" : 64,
            "byteOffset" : 1264
        },
        {
            "buffer" : 0,
            "byteLength" : 96,
            "byteOffset" : 1328
        },
        {
            "buffer" : 0,
            "byteLength" : 96,
            "byteOffset" : 1424
        },
        {
            "buffer" : 0,
            "byteLength" : 64,
            "byteOffset" : 1520
        }
    ],
    "buffers" : [
        {
            "byteLength" : 1584,
            "uri" : "data:application/octet-stream;base64,"
        }
    ]
}
