{
    "asset" : {
        "generator" : "Khronos glTF Blender I/O v1.3.48",
        "version" : "2.0"
    },
    "scene" : 0,
    "scenes" : [
        {
            "name" : "Scene",
            "nodes" : [
                0,
                1,
                2,
                3,
                4,
                5
            ]
        }
    ],
    "nodes" : [
        {
            "name" : "Node_1",
            "rotation" : [
                -0.7071068286895752,
                0,
                0,
                0.7071068286895752
            ],
            "scale" : [
                0.5082985162734985,
                0.5082985162734985,
                0.5082985162734985
            ],
            "translation" : [
                0.937112033367157,
                -0.3344758450984955,
                0.48517292737960815
            ]
        },
        {
            "name" : "Node_1.001",
            "rotation" : [
                -0.7071068286895752,
                0,
                0,
                0.7071068286895752
            ],
            "scale" : [
                0.5082985162734985,
                0.5082985162734985,
                0.5082985162734985
            ],
            "translation" : [
                0.937112033367157,
                -0.3344758450984955,
                0.48517292737960815
            ]
        },
        {
            "name" : "Node_1.002",
            "rotation" : [
                -0.7071068286895752,
                0,
                0,
                0.7071068286895752
            ],
            "scale" : [
                0.5082985162734985,
                0.5082985162734985,
                0.5082985162734985
            ],
            "translation" : [
                0.937112033367157,
                -0.3344758450984955,
                0.48517292737960815
            ]
        },
        {
            "name" : "Light",
            "rotation" : [
                0.16907575726509094,
                0.7558803558349609,
                -0.27217137813568115,
                0.570947527885437
            ],
            "scale" : [
                0.5082985758781433,
                0.5082985162734985,
                0.5082986354827881
            ],
            "translation" : [
                3.009061813354492,
                -0.5603173971176147,
                -0.0258978009223938
            ]
        },
        {
            "name" : "Camera",
            "rotation" : [
                0.483536034822464,
                0.33687159419059753,
                -0.20870360732078552,
                0.7804827094078064
            ],
            "scale" : [
                0.5082985162734985,
                0.5082985162734985,
                0.5082985162734985
            ],
            "translation" : [
                4.677626132965088,
                2.185825824737549,
                4.005542278289795
            ]
        },
        {
            "mesh" : 0,
            "name" : "Plane.001",
            "rotation" : [
                0,
                -0.3787350654602051,
                0,
                0.9255051612854004
            ],
            "scale" : [
                32.343475341796875,
                1,
                0.02008422277867794
            ],
            "translation" : [
                -42.610008239746094,
                -4.8276047706604,
                2.126455307006836
            ]
        }
    ],
    "materials" : [
        {
            "doubleSided" : true,
            "emissiveFactor" : [
                0,
                0,
                0
            ],
            "name" : "Material",
            "pbrMetallicRoughness" : {
                "baseColorFactor" : [
                    0.10702310502529144,
                    0.3915724754333496,
                    0.30946895480155945,
                    1
                ],
                "metallicFactor" : 0,
                "roughnessFactor" : 0.5
            }
        }
    ],
    "meshes" : [
        {
            "name" : "Plane.001",
            "primitives" : [
                {
                    "attributes" : {
                        "POSITION" : 0,
                        "NORMAL" : 1,
                        "TEXCOORD_0" : 2
                    },
                    "indices" : 3,
                    "material" : 0
                }
            ]
        }
    ],
    "accessors" : [
        {
            "bufferView" : 0,
            "componentType" : 5126,
            "count" : 480,
            "max" : [
                3.063710927963257,
                0,
                1
            ],
            "min" : [
                -1.002668857574463,
                0,
                -3230.201171875
            ],
            "type" : "VEC3"
        },
        {
            "bufferView" : 1,
            "componentType" : 5126,
            "count" : 480,
            "type" : "VEC3"
        },
        {
            "bufferView" : 2,
            "componentType" : 5126,
            "count" : 480,
            "type" : "VEC2"
        },
        {
            "bufferView" : 3,
            "componentType" : 5123,
            "count" : 720,
            "type" : "SCALAR"
        }
    ],
    "bufferViews" : [
        {
            "buffer" : 0,
            "byteLength" : 5760,
            "byteOffset" : 0
        },
        {
            "buffer" : 0,
            "byteLength" : 5760,
            "byteOffset" : 5760
        },
        {
            "buffer" : 0,
            "byteLength" : 3840,
            "byteOffset" : 11520
        },
        {
            "buffer" : 0,
            "byteLength" : 1440,
            "byteOffset" : 15360
        }
    ],
    "buffers" : [
        {
            "byteLength" : 16800,
            "uri" : "data:application/octet-stream;base64,"
        }
    ]
}
