{
    "asset" : {
        "generator" : "Khronos glTF Blender I/O v1.3.48",
        "version" : "2.0"
    },
    "scene" : 0,
    "scenes" : [
        {
            "name" : "Scene",
            "nodes" : [
                0,
                1,
                2,
                3,
                4,
                5,
                6,
                7,
                8,
                9,
                10,
                11,
                12
            ]
        }
    ],
    "nodes" : [
        {
            "name" : "Node_1",
            "rotation" : [
                -0.7071068286895752,
                0,
                0,
                0.7071068286895752
            ],
            "scale" : [
                0.5082985162734985,
                0.5082985162734985,
                0.5082985162734985
            ],
            "translation" : [
                0.937112033367157,
                -0.3344758450984955,
                0.48517292737960815
            ]
        },
        {
            "name" : "Node_1.001",
            "rotation" : [
                -0.7071068286895752,
                0,
                0,
                0.7071068286895752
            ],
            "scale" : [
                0.5082985162734985,
                0.5082985162734985,
                0.5082985162734985
            ],
            "translation" : [
                0.937112033367157,
                -0.3344758450984955,
                0.48517292737960815
            ]
        },
        {
            "name" : "Node_1.002",
            "rotation" : [
                -0.7071068286895752,
                0,
                0,
                0.7071068286895752
            ],
            "scale" : [
                0.5082985162734985,
                0.5082985162734985,
                0.5082985162734985
            ],
            "translation" : [
                0.937112033367157,
                -0.3344758450984955,
                0.48517292737960815
            ]
        },
        {
            "name" : "Light",
            "rotation" : [
                0.16907575726509094,
                0.7558803558349609,
                -0.27217137813568115,
                0.570947527885437
            ],
            "scale" : [
                0.5082985758781433,
                0.5082985162734985,
                0.5082986354827881
            ],
            "translation" : [
                3.009061813354492,
                -0.5603173971176147,
                -0.0258978009223938
            ]
        },
        {
            "name" : "Camera",
            "rotation" : [
                0.483536034822464,
                0.33687159419059753,
                -0.20870360732078552,
                0.7804827094078064
            ],
            "scale" : [
                0.5082985162734985,
                0.5082985162734985,
                0.5082985162734985
            ],
            "translation" : [
                4.677626132965088,
                2.185825824737549,
                4.005542278289795
            ]
        },
        {
            "mesh" : 0,
            "name" : "Text",
            "rotation" : [
                -0.00035237264819443226,
                -0.3866015076637268,
                0.0008096583769656718,
                0.9222464561462402
            ],
            "translation" : [
                -15.310223579406738,
                -4.629979133605957,
                -0.061020612716674805
            ]
        },
        {
            "mesh" : 1,
            "name" : "Text.001",
            "rotation" : [
                -0.00035237264819443226,
                -0.3866015076637268,
                0.0008096583769656718,
                0.9222464561462402
            ],
            "translation" : [
                -11.736323356628418,
                -4.615476608276367,
                7.884986877441406
            ]
        },
        {
            "mesh" : 2,
            "name" : "Text.002",
            "rotation" : [
                -0.00035237264819443226,
                -0.3866015076637268,
                0.0008096583769656718,
                0.9222464561462402
            ],
            "translation" : [
                -5.1082048416137695,
                -4.598997116088867,
                14.457874298095703
            ]
        },
        {
            "mesh" : 3,
            "name" : "Text.003",
            "rotation" : [
                -0.00035237264819443226,
                -0.3866015076637268,
                0.0008096583769656718,
                0.9222464561462402
            ],
            "translation" : [
                2.809673547744751,
                -4.582421779632568,
                19.871944427490234
            ]
        },
        {
            "mesh" : 4,
            "name" : "Text.004",
            "rotation" : [
                -0.00035237264819443226,
                -0.3866015076637268,
                0.0008096583769656718,
                0.9222464561462402
            ],
            "translation" : [
                14.460451126098633,
                -4.582812309265137,
                8.417326927185059
            ]
        },
        {
            "mesh" : 5,
            "name" : "Text.005",
            "rotation" : [
                -0.00035237264819443226,
                -0.3866015076637268,
                0.0008096583769656718,
                0.9222464561462402
            ],
            "translation" : [
                6.958128929138184,
                -4.612758636474609,
                -7.873093605041504
            ]
        },
        {
            "mesh" : 6,
            "name" : "Text.006",
            "rotation" : [
                -0.00035237264819443226,
                -0.3866015076637268,
                0.0008096583769656718,
                0.9222464561462402
            ],
            "translation" : [
                -2.736814260482788,
                -4.625414848327637,
                -8.514997482299805
            ]
        },
        {
            "mesh" : 7,
            "name" : "Text.007",
            "rotation" : [
                -0.00035237264819443226,
                -0.3866015076637268,
                0.0008096583769656718,
                0.9222464561462402
            ],
            "translation" : [
                -6.202707290649414,
                -4.635039329528809,
                -12.741501808166504
            ]
        }
    ],
    "materials" : [
        {
            "doubleSided" : true,
            "emissiveFactor" : [
                0,
                0,
                0
            ],
            "name" : "Material.003",
            "pbrMetallicRoughness" : {
                "baseColorFactor" : [
                    0.800000011920929,
                    0.800000011920929,
                    0.800000011920929,
                    1
                ],
                "metallicFactor" : 0,
                "roughnessFactor" : 0.5
            }
        }
    ],
    "meshes" : [
        {
            "name" : "Text",
            "primitives" : [
                {
                    "attributes" : {
                        "POSITION" : 0,
                        "NORMAL" : 1,
                        "TEXCOORD_0" : 2
                    },
                    "indices" : 3,
                    "material" : 0
                }
            ]
        },
        {
            "name" : "Text.001",
            "primitives" : [
                {
                    "attributes" : {
                        "POSITION" : 4,
                        "NORMAL" : 5,
                        "TEXCOORD_0" : 6
                    },
                    "indices" : 7,
                    "material" : 0
                }
            ]
        },
        {
            "name" : "Text.002",
            "primitives" : [
                {
                    "attributes" : {
                        "POSITION" : 8,
                        "NORMAL" : 9,
                        "TEXCOORD_0" : 10
                    },
                    "indices" : 11,
                    "material" : 0
                }
            ]
        },
        {
            "name" : "Text.003",
            "primitives" : [
                {
                    "attributes" : {
                        "POSITION" : 12,
                        "NORMAL" : 13,
                        "TEXCOORD_0" : 14
                    },
                    "indices" : 15,
                    "material" : 0
                }
            ]
        },
        {
            "name" : "Text.004",
            "primitives" : [
                {
                    "attributes" : {
                        "POSITION" : 16,
                        "NORMAL" : 17,
                        "TEXCOORD_0" : 18
                    },
                    "indices" : 19,
                    "material" : 0
                }
            ]
        },
        {
            "name" : "Text.005",
            "primitives" : [
                {
                    "attributes" : {
                        "POSITION" : 20,
                        "NORMAL" : 21,
                        "TEXCOORD_0" : 22
                    },
                    "indices" : 23,
                    "material" : 0
                }
            ]
        },
        {
            "name" : "Text.006",
            "primitives" : [
                {
                    "attributes" : {
                        "POSITION" : 24,
                        "NORMAL" : 25,
                        "TEXCOORD_0" : 26
                    },
                    "indices" : 27,
                    "material" : 0
                }
            ]
        },
        {
            "name" : "Text.007",
            "primitives" : [
                {
                    "attributes" : {
                        "POSITION" : 28,
                        "NORMAL" : 29,
                        "TEXCOORD_0" : 30
                    },
                    "indices" : 31,
                    "material" : 0
                }
            ]
        }
    ],
    "accessors" : [
        {
            "bufferView" : 0,
            "componentType" : 5126,
            "count" : 2994,
            "max" : [
                2.5895001888275146,
                0,
                2.6090002059936523
            ],
            "min" : [
                -2.5255002975463867,
                0,
                -0.6820000410079956
            ],
            "type" : "VEC3"
        },
        {
            "bufferView" : 1,
            "componentType" : 5126,
            "count" : 2994,
            "type" : "VEC3"
        },
        {
            "bufferView" : 2,
            "componentType" : 5126,
            "count" : 2994,
            "type" : "VEC2"
        },
        {
            "bufferView" : 3,
            "componentType" : 5123,
            "count" : 6732,
            "type" : "SCALAR"
        },
        {
            "bufferView" : 4,
            "componentType" : 5126,
            "count" : 2459,
            "max" : [
                3.5550007820129395,
                0,
                1.53000009059906
            ],
            "min" : [
                -3.5430006980895996,
                0,
                -0.6910000443458557
            ],
            "type" : "VEC3"
        },
        {
            "bufferView" : 5,
            "componentType" : 5126,
            "count" : 2459,
            "type" : "VEC3"
        },
        {
            "bufferView" : 6,
            "componentType" : 5126,
            "count" : 2459,
            "type" : "VEC2"
        },
        {
            "bufferView" : 7,
            "componentType" : 5123,
            "count" : 5463,
            "type" : "SCALAR"
        },
        {
            "bufferView" : 8,
            "componentType" : 5126,
            "count" : 2587,
            "max" : [
                3.380000114440918,
                0,
                1.53000009059906
            ],
            "min" : [
                -3.314000368118286,
                0,
                -0.6914074420928955
            ],
            "type" : "VEC3"
        },
        {
            "bufferView" : 9,
            "componentType" : 5126,
            "count" : 2587,
            "type" : "VEC3"
        },
        {
            "bufferView" : 10,
            "componentType" : 5126,
            "count" : 2587,
            "type" : "VEC2"
        },
        {
            "bufferView" : 11,
            "componentType" : 5123,
            "count" : 5709,
            "type" : "SCALAR"
        },
        {
            "bufferView" : 12,
            "componentType" : 5126,
            "count" : 1218,
            "max" : [
                2.7074999809265137,
                0,
                1.309000015258789
            ],
            "min" : [
                -2.639500141143799,
                0,
                -0.6910000443458557
            ],
            "type" : "VEC3"
        },
        {
            "bufferView" : 13,
            "componentType" : 5126,
            "count" : 1218,
            "type" : "VEC3"
        },
        {
            "bufferView" : 14,
            "componentType" : 5126,
            "count" : 1218,
            "type" : "VEC2"
        },
        {
            "bufferView" : 15,
            "componentType" : 5123,
            "count" : 2721,
            "type" : "SCALAR"
        },
        {
            "bufferView" : 16,
            "componentType" : 5126,
            "count" : 3312,
            "max" : [
                3.32200026512146,
                0,
                2.6090002059936523
            ],
            "min" : [
                -3.2920005321502686,
                0,
                -0.6820000410079956
            ],
            "type" : "VEC3"
        },
        {
            "bufferView" : 17,
            "componentType" : 5126,
            "count" : 3312,
            "type" : "VEC3"
        },
        {
            "bufferView" : 18,
            "componentType" : 5126,
            "count" : 3312,
            "type" : "VEC2"
        },
        {
            "bufferView" : 19,
            "componentType" : 5123,
            "count" : 7089,
            "type" : "SCALAR"
        },
        {
            "bufferView" : 20,
            "componentType" : 5126,
            "count" : 1545,
            "max" : [
                2.181000232696533,
                0,
                1.309000015258789
            ],
            "min" : [
                -2.138000249862671,
                0,
                -0.6910000443458557
            ],
            "type" : "VEC3"
        },
        {
            "bufferView" : 21,
            "componentType" : 5126,
            "count" : 1545,
            "type" : "VEC3"
        },
        {
            "bufferView" : 22,
            "componentType" : 5126,
            "count" : 1545,
            "type" : "VEC2"
        },
        {
            "bufferView" : 23,
            "componentType" : 5123,
            "count" : 3549,
            "type" : "SCALAR"
        },
        {
            "bufferView" : 24,
            "componentType" : 5126,
            "count" : 1285,
            "max" : [
                2.3429999351501465,
                0,
                1.309000015258789
            ],
            "min" : [
                -2.267000198364258,
                0,
                -0.6820000410079956
            ],
            "type" : "VEC3"
        },
        {
            "bufferView" : 25,
            "componentType" : 5126,
            "count" : 1285,
            "type" : "VEC3"
        },
        {
            "bufferView" : 26,
            "componentType" : 5126,
            "count" : 1285,
            "type" : "VEC2"
        },
        {
            "bufferView" : 27,
            "componentType" : 5123,
            "count" : 2817,
            "type" : "SCALAR"
        },
        {
            "bufferView" : 28,
            "componentType" : 5126,
            "count" : 922,
            "max" : [
                1.2404999732971191,
                0,
                1.309000015258789
            ],
            "min" : [
                -1.1655001640319824,
                0,
                -0.6820000410079956
            ],
            "type" : "VEC3"
        },
        {
            "bufferView" : 29,
            "componentType" : 5126,
            "count" : 922,
            "type" : "VEC3"
        },
        {
            "bufferView" : 30,
            "componentType" : 5126,
            "count" : 922,
            "type" : "VEC2"
        },
        {
            "bufferView" : 31,
            "componentType" : 5123,
            "count" : 2109,
            "type" : "SCALAR"
        }
    ],
    "bufferViews" : [
        {
            "buffer" : 0,
            "byteLength" : 35928,
            "byteOffset" : 0
        },
        {
            "buffer" : 0,
            "byteLength" : 35928,
            "byteOffset" : 35928
        },
        {
            "buffer" : 0,
            "byteLength" : 23952,
            "byteOffset" : 71856
        },
        {
            "buffer" : 0,
            "byteLength" : 13464,
            "byteOffset" : 95808
        },
        {
            "buffer" : 0,
            "byteLength" : 29508,
            "byteOffset" : 109272
        },
        {
            "buffer" : 0,
            "byteLength" : 29508,
            "byteOffset" : 138780
        },
        {
            "buffer" : 0,
            "byteLength" : 19672,
            "byteOffset" : 168288
        },
        {
            "buffer" : 0,
            "byteLength" : 10926,
            "byteOffset" : 187960
        },
        {
            "buffer" : 0,
            "byteLength" : 31044,
            "byteOffset" : 198888
        },
        {
            "buffer" : 0,
            "byteLength" : 31044,
            "byteOffset" : 229932
        },
        {
            "buffer" : 0,
            "byteLength" : 20696,
            "byteOffset" : 260976
        },
        {
            "buffer" : 0,
            "byteLength" : 11418,
            "byteOffset" : 281672
        },
        {
            "buffer" : 0,
            "byteLength" : 14616,
            "byteOffset" : 293092
        },
        {
            "buffer" : 0,
            "byteLength" : 14616,
            "byteOffset" : 307708
        },
        {
            "buffer" : 0,
            "byteLength" : 9744,
            "byteOffset" : 322324
        },
        {
            "buffer" : 0,
            "byteLength" : 5442,
            "byteOffset" : 332068
        },
        {
            "buffer" : 0,
            "byteLength" : 39744,
            "byteOffset" : 337512
        },
        {
            "buffer" : 0,
            "byteLength" : 39744,
            "byteOffset" : 377256
        },
        {
            "buffer" : 0,
            "byteLength" : 26496,
            "byteOffset" : 417000
        },
        {
            "buffer" : 0,
            "byteLength" : 14178,
            "byteOffset" : 443496
        },
        {
            "buffer" : 0,
            "byteLength" : 18540,
            "byteOffset" : 457676
        },
        {
            "buffer" : 0,
            "byteLength" : 18540,
            "byteOffset" : 476216
        },
        {
            "buffer" : 0,
            "byteLength" : 12360,
            "byteOffset" : 494756
        },
        {
            "buffer" : 0,
            "byteLength" : 7098,
            "byteOffset" : 507116
        },
        {
            "buffer" : 0,
            "byteLength" : 15420,
            "byteOffset" : 514216
        },
        {
            "buffer" : 0,
            "byteLength" : 15420,
            "byteOffset" : 529636
        },
        {
            "buffer" : 0,
            "byteLength" : 10280,
            "byteOffset" : 545056
        },
        {
            "buffer" : 0,
            "byteLength" : 5634,
            "byteOffset" : 555336
        },
        {
            "buffer" : 0,
            "byteLength" : 11064,
            "byteOffset" : 560972
        },
        {
            "buffer" : 0,
            "byteLength" : 11064,
            "byteOffset" : 572036
        },
        {
            "buffer" : 0,
            "byteLength" : 7376,
            "byteOffset" : 583100
        },
        {
            "buffer" : 0,
            "byteLength" : 4218,
            "byteOffset" : 590476
        }
    ],
    "buffers" : [
        {
            "byteLength" : 594696,
            "uri" : "data:application/octet-stream;base64,"
        }
    ]
}
